<svg width="29" height="29" viewBox="0 0 29 29" fill="none" xmlns="http://www.w3.org/2000/svg">
<path d="M14.0422 12.8722C15.3347 12.8722 16.3825 11.8243 16.3825 10.5318C16.3825 9.23923 15.3347 8.19141 14.0422 8.19141C12.7496 8.19141 11.7018 9.23923 11.7018 10.5318C11.7018 11.8243 12.7496 12.8722 14.0422 12.8722Z" stroke="white" stroke-width="2.59113" stroke-linecap="round" stroke-linejoin="round"/>
<path d="M14.0423 24.5736C14.0423 24.5736 22.2336 18.9027 22.2336 11.6116C22.2336 9.46296 21.3706 7.40236 19.8344 5.88307C18.2982 4.36378 16.2147 3.51025 14.0423 3.51025C11.8698 3.51025 9.7863 4.36378 8.25013 5.88307C6.71396 7.40236 5.85095 9.46296 5.85095 11.6116C5.85095 18.9027 14.0423 24.5736 14.0423 24.5736Z" stroke="white" stroke-width="2.59113" stroke-linecap="round" stroke-linejoin="round"/>
</svg>
