<svg width="27" height="27" viewBox="0 0 27 27" fill="none" xmlns="http://www.w3.org/2000/svg">
<path d="M10.3421 3.61279L9.32116 4.02116L9.32116 4.02116L10.3421 3.61279ZM11.6945 6.99389L12.7154 6.58552L12.7154 6.58552L11.6945 6.99389ZM11.2834 9.58924L12.1281 10.2932L12.1281 10.2932L11.2834 9.58924ZM10.5555 10.4627L11.4002 11.1666L11.4002 11.1666L10.5555 10.4627ZM10.7123 13.9194L9.93478 14.6969L9.93478 14.6969L10.7123 13.9194ZM13.1715 16.3786L13.949 15.6011L13.949 15.6011L13.1715 16.3786ZM16.6282 16.5354L15.9243 15.6907L15.9243 15.6907L16.6282 16.5354ZM17.5016 15.8075L18.2056 16.6522L18.2056 16.6522L17.5016 15.8075ZM20.097 15.3964L19.6886 16.4173L19.6886 16.4173L20.097 15.3964ZM23.4781 16.7488L23.8865 15.7279L23.8865 15.7279L23.4781 16.7488ZM4.43062 3.09957H7.95993V0.900434H4.43062V3.09957ZM9.32116 4.02116L10.6736 7.40226L12.7154 6.58552L11.363 3.20443L9.32116 4.02116ZM10.4386 8.88532L9.71078 9.75875L11.4002 11.1666L12.1281 10.2932L10.4386 8.88532ZM9.93478 14.6969L12.394 17.1561L13.949 15.6011L11.4898 13.1419L9.93478 14.6969ZM17.3321 17.3801L18.2056 16.6522L16.7977 14.9628L15.9243 15.6907L17.3321 17.3801ZM19.6886 16.4173L23.0697 17.7697L23.8865 15.7279L20.5054 14.3754L19.6886 16.4173ZM23.9913 19.131V22.6603H26.1904V19.131H23.9913ZM22.6603 23.9913C11.8572 23.9913 3.09957 15.2337 3.09957 4.43062H0.900434C0.900434 16.4482 10.6426 26.1904 22.6603 26.1904V23.9913ZM23.9913 22.6603C23.9913 23.3954 23.3954 23.9913 22.6603 23.9913V26.1904C24.6099 26.1904 26.1904 24.6099 26.1904 22.6603H23.9913ZM23.0697 17.7697C23.6263 17.9924 23.9913 18.5315 23.9913 19.131H26.1904C26.1904 17.6322 25.278 16.2845 23.8865 15.7279L23.0697 17.7697ZM18.2056 16.6522C18.6193 16.3075 19.1886 16.2173 19.6886 16.4173L20.5054 14.3754C19.2554 13.8755 17.8319 14.101 16.7977 14.9628L18.2056 16.6522ZM12.394 17.1561C13.7345 18.4965 15.8758 18.5937 17.3321 17.3801L15.9243 15.6907C15.3418 16.1761 14.4852 16.1373 13.949 15.6011L12.394 17.1561ZM9.71078 9.75875C8.49721 11.215 8.59435 13.3564 9.93478 14.6969L11.4898 13.1419C10.9536 12.6057 10.9148 11.7491 11.4002 11.1666L9.71078 9.75875ZM10.6736 7.40226C10.8736 7.90224 10.7834 8.47163 10.4386 8.88532L12.1281 10.2932C12.9899 9.25895 13.2154 7.83549 12.7154 6.58552L10.6736 7.40226ZM7.95993 3.09957C8.55942 3.09957 9.09851 3.46455 9.32116 4.02116L11.363 3.20443C10.8064 1.81289 9.45865 0.900434 7.95993 0.900434V3.09957ZM4.43062 0.900434C2.48095 0.900434 0.900434 2.48095 0.900434 4.43062H3.09957C3.09957 3.6955 3.6955 3.09957 4.43062 3.09957V0.900434Z" fill="white"/>
</svg>
